<?xml version="1.0" standalone="no"?><!DOCTYPE svg PUBLIC "-//W3C//DTD SVG 1.1//EN" "http://www.w3.org/Graphics/SVG/1.1/DTD/svg11.dtd"><svg width="32" height="32" viewBox="0 0 32 32" version="1.1" xmlns="http://www.w3.org/2000/svg" xmlns:xlink="http://www.w3.org/1999/xlink"><defs><style type="text/css"><![CDATA[
@font-face { font-family: ifont; src: url("//at.alicdn.com/t/font_1442373896_4754455.eot?#iefix") format("embedded-opentype"), url("//at.alicdn.com/t/font_1442373896_4754455.woff") format("woff"), url("//at.alicdn.com/t/font_1442373896_4754455.ttf") format("truetype"), url("//at.alicdn.com/t/font_1442373896_4754455.svg#ifont") format("svg"); }

]]></style></defs><g class="transform-group"><g transform="scale(0.03125, 0.03125)"><path d="M1024 512c0 281.6-230.4 512-512 512S0 793.6 0 512 230.4 0 512 0 1024 230.4 1024 512zM256 453.485714c-36.571429 0-62.171429 29.257143-62.171429 62.171429S219.428571 577.828571 256 577.828571s62.171429-29.257143 62.171429-62.171429S288.914286 453.485714 256 453.485714zM512 453.485714c-36.571429 0-62.171429 29.257143-62.171429 62.171429s29.257143 62.171429 62.171429 62.171429 62.171429-29.257143 62.171429-62.171429S548.571429 453.485714 512 453.485714zM768 453.485714c-36.571429 0-62.171429 29.257143-62.171429 62.171429s29.257143 62.171429 62.171429 62.171429 62.171429-29.257143 62.171429-62.171429S804.571429 453.485714 768 453.485714z" fill="#272636"></path></g></g></svg>